<svg width="256" height="256" viewBox="0 0 256 256" fill="none" xmlns="http://www.w3.org/2000/svg">
<g clip-path="url(#clip0_2022_25134)">
<rect width="256" height="256" rx="32" fill="url(#paint0_linear_2022_25134)"/>
<path d="M32 111.111C32 77.0033 32 59.9496 36.0268 54.2123C40.0537 48.475 56.0888 42.9861 88.1591 32.0084L94.2691 29.9169C110.986 24.1945 119.345 21.3333 128 21.3333C136.655 21.3333 145.014 24.1945 161.731 29.9169L167.841 32.0084C199.911 42.9861 215.946 48.475 219.973 54.2123C224 59.9496 224 77.0033 224 111.111C224 116.263 224 121.85 224 127.908C224 188.047 178.784 217.232 150.415 229.624C142.72 232.986 138.872 234.667 128 234.667C117.128 234.667 113.28 232.986 105.585 229.624C77.2156 217.232 32 188.047 32 127.908C32 121.85 32 116.263 32 111.111Z" fill="white" fill-opacity="0.2"/>
<path fill-rule="evenodd" clip-rule="evenodd" d="M128 29.3333C120.984 29.3333 114.082 31.5907 96.8599 37.4858L90.7499 39.5772C74.6156 45.1001 62.849 49.1311 54.5877 52.4872C50.464 54.1625 47.4763 55.5663 45.3791 56.7843C44.3437 57.3855 43.6303 57.8817 43.1538 58.269C42.7498 58.5974 42.5958 58.7833 42.5738 58.8104C42.5532 58.8439 42.4206 59.0656 42.2339 59.5896C42.0207 60.1882 41.7844 61.0462 41.5543 62.2405C41.0884 64.658 40.7354 67.9787 40.4915 72.4577C40.0029 81.4304 40 93.9555 40 111.111V127.908C40 183.109 81.2789 210.277 108.787 222.293C112.75 224.024 115.038 225.004 117.585 225.656C120.018 226.279 122.987 226.667 128 226.667C133.013 226.667 135.982 226.279 138.415 225.656C140.962 225.004 143.25 224.024 147.213 222.293C174.721 210.277 216 183.109 216 127.908V111.111C216 93.9555 215.997 81.4304 215.508 72.4577C215.265 67.9787 214.912 64.658 214.446 62.2405C214.216 61.0462 213.979 60.1882 213.766 59.5896C213.579 59.0652 213.447 58.8436 213.426 58.8104C213.404 58.783 213.25 58.5971 212.846 58.269C212.37 57.8817 211.656 57.3855 210.621 56.7843C208.524 55.5663 205.536 54.1625 201.412 52.4872C193.151 49.1311 181.384 45.1001 165.25 39.5772L159.14 37.4858C141.918 31.5907 135.016 29.3333 128 29.3333ZM93.0495 21.8785C108.451 16.6035 118 13.3333 128 13.3333C138 13.3333 147.549 16.6035 162.951 21.8785C163.403 22.0333 163.86 22.1898 164.322 22.3481L170.71 24.5347C186.511 29.9433 198.705 34.1175 207.434 37.6638C211.832 39.4502 215.612 41.1804 218.656 42.9483C221.586 44.6496 224.525 46.7715 226.521 49.6164C228.495 52.4283 229.515 55.8852 230.157 59.2129C230.823 62.6725 231.225 66.8227 231.485 71.5878C232 81.0495 232 94.0117 232 110.825V127.908C232 192.986 182.848 224.187 153.618 236.955L153.329 237.082C149.704 238.665 146.297 240.154 142.383 241.156C138.25 242.214 133.859 242.667 128 242.667C122.141 242.667 117.75 242.214 113.617 241.156C109.703 240.154 106.296 238.665 102.671 237.082L102.382 236.955C73.1523 224.187 24 192.986 24 127.908V110.826C24 94.0122 24 81.0497 24.5152 71.5878C24.7747 66.8227 25.1767 62.6725 25.8434 59.2129C26.4846 55.8852 27.5051 52.4283 29.4787 49.6164C31.4754 46.7715 34.4143 44.6496 37.3438 42.9483C40.3879 41.1804 44.1684 39.4502 48.5657 37.6638C57.295 34.1175 69.4893 29.9434 85.2901 24.5347L91.6782 22.348C92.1404 22.1898 92.5975 22.0333 93.0495 21.8785Z" fill="white" fill-opacity="0.2"/>
<path d="M145.712 58.4468L90.8719 66.2321C89.8381 66.3788 89.119 67.3359 89.2657 68.3697L101.101 151.74L103.581 169.206C103.856 171.147 106.54 171.437 107.224 169.6L114.594 149.824L121.146 132.266C121.256 131.971 121.291 131.652 121.247 131.34L119.39 118.259C119.243 117.225 119.962 116.268 120.996 116.121L126.404 115.353C127.09 115.256 127.667 114.791 127.91 114.143L134.487 96.5162C134.989 95.1726 133.87 93.7818 132.45 93.9834L118.141 96.0147C117.108 96.1614 116.151 95.4424 116.004 94.4085L114.86 86.3533C114.714 85.3195 115.433 84.3625 116.466 84.2157L139.23 80.9841C139.916 80.8868 140.493 80.4222 140.736 79.7733L147.749 60.9797C148.25 59.6361 147.132 58.2453 145.712 58.4468Z" fill="white"/>
<path d="M113.205 186.109C112.587 187.772 113.198 189.664 114.777 190.472C120.136 193.215 126.365 194.389 132.779 193.479C149.309 191.132 160.807 175.829 158.46 159.299C156.671 146.691 147.344 137.011 135.684 134.168C133.961 133.748 132.263 134.783 131.645 136.446L125.583 152.773C125.233 153.716 126.26 154.71 127.255 154.569C132.214 153.865 136.805 157.314 137.509 162.273C138.213 167.232 134.764 171.823 129.805 172.527C128.982 172.644 128.17 172.647 127.384 172.547C124.013 172.12 118.157 172.771 116.975 175.957L113.205 186.109Z" fill="white"/>
<circle cx="128.674" cy="163.153" r="9.06919" transform="rotate(-8.07984 128.674 163.153)" fill="url(#paint1_linear_2022_25134)"/>
</g>
<defs>
<linearGradient id="paint0_linear_2022_25134" x1="128" y1="0" x2="128" y2="256" gradientUnits="userSpaceOnUse">
<stop stop-color="#FFC700"/>
<stop offset="1" stop-color="#FF9900"/>
</linearGradient>
<linearGradient id="paint1_linear_2022_25134" x1="128.674" y1="154.084" x2="128.674" y2="172.223" gradientUnits="userSpaceOnUse">
<stop stop-color="#FFC700"/>
<stop offset="1" stop-color="#FF9900"/>
</linearGradient>
<clipPath id="clip0_2022_25134">
<rect width="256" height="256" rx="36" fill="white"/>
</clipPath>
</defs>
</svg>
